<?xml version="1.0" standalone="no"?>
<!DOCTYPE svg PUBLIC "-//W3C//DTD SVG 20010904//EN"
 "http://www.w3.org/TR/2001/REC-SVG-20010904/DTD/svg10.dtd">
<svg version="1.0" xmlns="http://www.w3.org/2000/svg"
 width="500.000000pt" height="499.000000pt" viewBox="0 0 500.000000 499.000000"
 preserveAspectRatio="xMidYMid meet">

<g transform="translate(0.000000,499.000000) scale(0.100000,-0.100000)"
fill="#000000" stroke="none">
<path d="M2355 4979 c-499 -28 -953 -197 -1373 -511 -204 -152 -466 -443 -605
-671 -47 -78 -157 -290 -179 -346 -102 -258 -156 -487 -181 -761 -30 -339 16
-691 135 -1030 268 -761 920 -1366 1694 -1571 245 -64 385 -82 654 -82 324 0
575 42 851 144 774 285 1352 920 1560 1714 73 280 97 561 71 835 -57 614 -294
1123 -721 1551 -157 156 -282 256 -456 364 -430 265 -938 393 -1450 364z m503
-90 c520 -78 982 -311 1357 -686 237 -237 436 -542 545 -834 17 -46 35 -94 41
-107 20 -50 78 -294 95 -402 27 -165 27 -579 0 -735 -90 -536 -312 -972 -686
-1345 -369 -370 -803 -591 -1336 -681 -191 -33 -550 -33 -749 0 -526 86 -971
314 -1341 687 -372 374 -598 826 -684 1364 -17 108 -24 457 -11 575 27 251 51
359 133 590 292 821 1023 1429 1888 1570 232 38 508 39 748 4z"/>
<path d="M3634 4286 c-54 -17 -153 -77 -212 -129 -85 -73 -203 -216 -277 -336
-61 -98 -90 -149 -124 -212 -22 -41 -46 -73 -53 -72 -14 1 -99 20 -163 34 -79
19 -182 28 -300 28 -135 0 -207 -8 -345 -40 -153 -35 -147 -36 -193 51 -50 94
-182 294 -255 383 -170 209 -367 321 -510 289 -56 -13 -142 -73 -181 -127 -17
-23 -43 -78 -58 -121 -24 -71 -27 -93 -27 -219 -1 -148 16 -236 79 -422 21
-61 25 -90 25 -195 0 -136 13 -201 54 -270 34 -58 115 -134 188 -178 l58 -35
0 -192 c0 -172 -3 -203 -25 -290 -28 -110 -34 -260 -13 -338 10 -37 10 -48 -1
-54 -7 -5 -86 -11 -174 -15 l-162 -7 -195 -103 c-107 -57 -240 -127 -295 -156
-121 -64 -125 -66 -125 -96 0 -34 -26 -23 405 -167 110 -37 210 -72 222 -79
17 -8 48 -8 125 1 138 16 365 31 462 31 73 0 81 -2 125 -34 25 -18 80 -46 121
-62 68 -26 85 -28 182 -26 104 2 109 1 175 -32 211 -105 518 -95 723 25 41 24
52 26 120 22 82 -6 173 13 244 49 60 30 148 102 182 148 16 21 34 41 41 44 7
3 80 8 162 12 114 5 154 4 165 -5 12 -10 58 -10 218 -1 169 9 209 15 241 31
26 14 78 24 162 33 78 8 133 19 148 29 35 22 68 97 74 165 8 94 -12 235 -42
290 -40 74 -49 77 -211 77 -106 0 -145 3 -158 14 -13 11 -40 13 -134 7 -261
-15 -318 -22 -342 -39 -42 -30 -47 -23 -53 81 -3 53 -14 131 -25 172 -22 81
-28 167 -24 357 l2 122 58 37 c68 43 145 115 178 167 38 58 54 138 54 267 0
70 6 135 14 165 20 69 73 271 86 323 19 80 12 222 -15 317 -14 47 -34 103 -44
123 -26 50 -96 118 -149 143 -54 27 -152 34 -208 15z m194 -75 c31 -17 100
-98 118 -138 38 -90 47 -138 47 -258 -1 -111 -4 -131 -43 -265 -67 -233 -69
-241 -63 -347 9 -160 -35 -261 -151 -349 -68 -52 -97 -54 -106 -9 -13 60 -62
155 -81 155 -29 0 -30 -14 -5 -86 39 -113 47 -171 50 -390 2 -181 5 -219 25
-284 23 -77 34 -240 18 -257 -5 -4 -54 -8 -109 -8 l-101 0 -18 34 c-28 52 -66
88 -164 153 -104 70 -138 100 -168 148 -18 30 -49 69 -130 166 -36 42 -127 96
-214 127 -82 28 -98 31 -228 31 -118 0 -151 -3 -209 -22 -169 -55 -273 -139
-374 -303 -30 -49 -96 -109 -179 -162 -119 -76 -169 -142 -180 -237 -7 -57 -8
-57 -108 -62 l-70 -3 -14 40 c-24 66 -19 254 9 345 20 67 23 99 25 305 2 206
4 238 25 310 30 104 35 141 20 150 -19 12 -36 -15 -65 -105 -15 -47 -31 -89
-35 -93 -16 -18 -122 59 -178 130 -51 65 -62 109 -62 253 0 121 -2 135 -39
252 -55 174 -81 293 -81 374 0 76 31 218 61 274 30 58 96 118 142 131 53 14
146 5 195 -20 114 -58 256 -199 374 -371 74 -109 188 -301 188 -318 0 -6 -18
-21 -40 -32 -41 -21 -52 -46 -25 -56 8 -3 49 8 92 24 231 89 464 119 706 92
94 -11 282 -59 351 -89 67 -30 78 -32 92 -20 23 19 17 27 -36 54 -27 14 -50
28 -50 30 0 15 103 196 167 295 169 258 335 408 478 430 43 6 113 -3 143 -19z
m-1194 -1642 c75 -14 201 -72 251 -117 22 -19 71 -76 108 -126 93 -124 108
-139 219 -212 131 -87 161 -130 161 -228 0 -165 -121 -276 -301 -276 -122 0
-198 35 -385 177 -134 100 -156 134 -156 233 l-1 65 51 28 c62 34 70 52 35 80
-32 27 -43 74 -23 101 19 26 37 12 37 -29 0 -62 60 -74 116 -22 69 63 54 160
-34 216 -71 44 -116 54 -238 50 -100 -4 -114 -7 -164 -35 -77 -44 -103 -84
-97 -153 3 -46 9 -59 36 -83 58 -52 121 -33 121 36 0 32 14 40 35 19 23 -22
13 -71 -21 -101 -34 -29 -26 -45 36 -79 l52 -28 -5 -73 c-4 -49 -12 -83 -26
-106 -40 -63 -224 -206 -340 -263 -70 -34 -80 -36 -170 -36 -140 0 -219 40
-279 141 -23 40 -27 58 -26 122 0 84 13 118 66 166 33 30 49 42 123 90 63 41
111 91 190 199 41 55 92 115 115 133 50 41 157 91 230 108 70 15 209 17 284 3z
m-39 -119 c42 -16 14 -37 -59 -45 -105 -11 -197 19 -134 44 31 13 160 13 193
1z m1503 -523 c35 -138 48 -426 20 -452 -7 -7 -43 -15 -79 -18 l-67 -6 0 109
c0 122 -8 224 -27 322 -15 81 -12 86 65 90 74 4 76 3 88 -45z m101 39 c20 -24
43 -204 42 -335 -1 -149 -4 -161 -39 -161 l-27 0 -1 158 c-1 99 -7 188 -18
241 -9 46 -16 89 -16 97 0 18 44 18 59 0z m-304 -50 c34 -99 43 -448 11 -468
-6 -4 -19 -8 -30 -8 -17 0 -18 6 -11 78 8 90 -9 294 -31 369 -18 60 -13 75 23
71 19 -2 28 -12 38 -42z m646 15 c30 -36 39 -88 39 -214 0 -123 -11 -166 -48
-186 -21 -11 -212 -35 -220 -27 -3 3 -7 63 -9 133 -3 113 -15 252 -24 293 -5
18 61 29 170 26 63 -1 76 -5 92 -25z m-772 -34 c5 -13 11 -36 13 -52 3 -27 0
-30 -37 -36 -22 -4 -101 -8 -175 -10 l-135 -3 3 50 c2 27 6 51 9 54 5 5 142
15 251 18 57 2 63 0 71 -21z m-1244 -59 c14 -6 25 -15 25 -19 0 -4 21 -22 46
-40 25 -17 42 -35 37 -39 -12 -12 -283 -24 -283 -13 0 14 126 119 147 123 1 0
14 -5 28 -12z m-937 -95 c15 -31 19 -49 12 -53 -14 -9 -272 -24 -413 -25
l-109 0 -31 42 c-17 24 -27 46 -23 50 3 4 73 11 154 15 81 5 197 12 257 16 61
4 115 6 120 5 6 -2 20 -24 33 -50z m2210 -50 c3 -86 18 -79 -178 -88 -74 -3
-183 -11 -242 -16 -58 -6 -112 -9 -119 -7 -7 2 9 17 34 34 26 16 63 52 83 81
l35 51 87 7 c48 3 96 8 107 9 11 2 58 3 105 2 l85 -1 3 -72z m-2805 -3 c36
-48 47 -80 28 -80 -13 0 -71 -81 -71 -98 0 -8 23 -35 52 -62 l51 -47 -26 -44
c-43 -74 -53 -85 -68 -73 -8 6 -52 23 -99 38 -87 28 -99 32 -161 59 l-35 15 4
61 c3 46 0 67 -13 87 -9 14 -14 28 -11 32 8 8 300 161 306 161 3 0 22 -22 43
-49z m1756 -24 c25 -18 75 -48 110 -65 34 -18 61 -34 58 -37 -4 -4 -299 -25
-612 -43 -88 -6 -183 -12 -210 -16 -57 -7 -674 -43 -875 -51 l-135 -6 -32 32
c-18 17 -33 33 -33 36 0 3 13 25 30 48 34 50 23 48 350 66 102 6 199 12 215
15 23 4 43 -4 89 -35 67 -46 105 -58 197 -67 107 -9 185 16 326 104 48 31 58
33 145 34 51 1 127 5 168 9 150 14 158 13 209 -24z m1051 -145 l0 -50 -42 -5
c-110 -13 -604 -48 -918 -66 -96 -6 -285 -19 -420 -30 -135 -11 -389 -29 -565
-40 -176 -11 -376 -25 -445 -31 -199 -16 -360 -22 -360 -13 0 4 14 31 31 60
l32 52 156 11 c407 29 814 56 1076 71 105 6 303 20 440 30 138 11 311 23 385
26 74 4 225 12 335 19 110 7 221 13 248 14 l47 1 0 -49z m-430 -154 c0 -20
-97 -95 -165 -128 -74 -36 -205 -53 -205 -26 0 9 5 19 10 22 16 10 12 45 -6
45 -9 0 -37 -19 -64 -43 -64 -58 -175 -114 -261 -132 -91 -19 -258 -19 -351 0
-74 16 -187 67 -244 110 -47 36 -67 36 -74 0 -6 -30 -7 -30 -64 -28 -64 2
-113 16 -163 46 -23 13 -31 22 -22 27 6 5 75 11 153 15 77 3 179 10 226 15 47
5 191 16 320 24 129 9 296 20 370 26 74 5 216 15 315 21 99 6 182 13 184 15
10 10 41 3 41 -9z"/>
<path d="M3425 3974 c-43 -44 -117 -258 -135 -396 -14 -99 -2 -206 29 -266 47
-92 120 -167 142 -145 6 6 -5 30 -34 70 -61 82 -69 99 -83 171 -23 123 12 326
86 488 16 37 30 73 30 80 0 19 -15 18 -35 -2z"/>
<path d="M1528 3964 c-3 -3 12 -44 34 -92 51 -110 88 -270 88 -380 0 -45 -4
-90 -9 -100 -6 -9 -12 -33 -16 -53 -3 -19 -25 -63 -50 -97 -46 -63 -56 -92
-31 -92 21 0 92 82 122 142 52 102 44 307 -18 488 -47 136 -95 209 -120 184z"/>
<path d="M3806 3248 c-7 -13 -16 -32 -19 -43 -3 -11 -8 -30 -12 -42 -4 -16 -2
-23 7 -23 14 0 58 79 58 105 0 25 -19 26 -34 3z"/>
<path d="M1150 3235 c0 -24 49 -115 61 -115 14 0 7 43 -15 94 -15 36 -46 50
-46 21z"/>
<path d="M3155 3036 c-19 -14 -19 -15 -1 -35 12 -13 31 -21 50 -21 17 0 51
-11 75 -25 50 -29 69 -31 77 -10 11 27 -24 63 -81 84 -65 25 -94 26 -120 7z"/>
<path d="M1730 3025 c-57 -18 -105 -65 -95 -94 8 -27 17 -26 63 4 21 14 61 31
90 37 56 14 73 35 46 55 -22 16 -46 16 -104 -2z"/>
<path d="M3176 2793 c-33 -5 -102 -46 -130 -77 -49 -55 -69 -155 -46 -235 13
-48 73 -116 123 -140 60 -29 151 -29 207 2 134 71 172 248 78 361 -55 67 -148
103 -232 89z m16 -91 c-43 -42 -51 -56 -57 -100 -8 -61 0 -107 26 -144 26 -36
80 -68 115 -68 22 0 25 -3 16 -12 -17 -17 -111 -14 -147 5 -33 17 -77 61 -94
94 -18 35 -13 129 8 172 20 39 81 86 122 94 59 11 60 7 11 -41z m160 -39 c22
-20 23 -41 1 -65 -22 -24 -49 -23 -67 4 -20 29 -20 34 4 58 24 24 38 25 62 3z"/>
<path d="M1667 2759 c-69 -36 -112 -90 -127 -163 -20 -97 16 -192 93 -245 109
-74 222 -61 307 35 45 51 60 93 60 163 0 100 -41 166 -131 212 -76 38 -126 38
-202 -2z m123 -29 c0 -5 -5 -10 -10 -10 -22 0 -73 -46 -91 -82 -21 -42 -25
-127 -8 -161 24 -46 73 -87 111 -94 21 -3 38 -9 38 -14 0 -14 -41 -21 -84 -15
-57 9 -100 37 -133 87 -23 35 -28 53 -28 105 0 53 4 69 30 106 18 25 49 52 75
66 46 23 100 30 100 12z m108 -72 c7 -7 12 -25 12 -40 0 -40 -39 -58 -75 -34
-30 20 -32 39 -5 66 23 23 50 26 68 8z"/>
<path d="M2445 2750 c-90 -15 -155 -33 -166 -47 -20 -23 19 -27 95 -9 87 20
171 20 251 1 80 -19 97 -19 93 2 -2 12 -28 23 -88 40 -91 24 -108 25 -185 13z"/>
<path d="M2997 2103 c-13 -12 -7 -42 11 -51 23 -12 42 -4 42 17 0 30 -35 52
-53 34z"/>
<path d="M1960 2075 c-16 -20 -6 -45 19 -45 20 0 37 32 26 50 -9 15 -31 12
-45 -5z"/>
<path d="M2937 1973 c-13 -13 -7 -51 9 -57 16 -6 44 9 44 25 0 10 -29 39 -39
39 -4 0 -11 -3 -14 -7z"/>
<path d="M2034 1946 c-9 -24 4 -48 23 -44 24 4 24 52 0 56 -9 2 -20 -4 -23
-12z"/>
<path d="M1827 1933 c-8 -14 12 -53 26 -53 20 0 40 27 33 45 -5 15 -51 21 -59
8z"/>
<path d="M3114 1925 c-7 -18 12 -45 32 -45 18 0 26 17 19 40 -7 23 -43 27 -51
5z"/>
<path d="M3984 1895 c-9 -22 4 -35 34 -35 36 0 56 14 49 34 -8 21 -75 22 -83
1z"/>
<path d="M4013 1734 c-22 -9 -14 -33 11 -40 37 -9 61 -1 61 21 0 15 -7 20 -30
22 -16 1 -36 0 -42 -3z"/>
<path d="M4010 1540 c0 -11 6 -21 13 -21 41 -4 82 15 71 32 -3 5 -23 9 -45 9
-32 0 -39 -3 -39 -20z"/>
</g>
</svg>
