<?xml version="1.0" standalone="no"?>
<!DOCTYPE svg PUBLIC "-//W3C//DTD SVG 20010904//EN"
 "http://www.w3.org/TR/2001/REC-SVG-20010904/DTD/svg10.dtd">
<svg version="1.0" xmlns="http://www.w3.org/2000/svg"
 width="325.000000pt" height="272.000000pt" viewBox="0 0 325.000000 272.000000"
 preserveAspectRatio="xMidYMid meet">

<g transform="translate(0.000000,272.000000) scale(0.100000,-0.100000)"
fill="#000000" stroke="none">
<path d="M2476 2599 c-134 -32 -312 -220 -458 -486 -22 -40 -43 -71 -47 -68
-4 2 -52 14 -107 26 -172 38 -380 28 -571 -27 -18 -5 -25 2 -48 47 -50 101
-180 284 -255 360 -89 89 -171 138 -245 146 -71 7 -117 -10 -174 -67 -39 -39
-51 -60 -70 -125 -32 -106 -31 -200 3 -333 14 -57 32 -114 38 -125 7 -12 14
-80 18 -152 4 -110 9 -137 28 -175 31 -59 76 -106 137 -141 l49 -28 3 -137 c2
-112 -1 -151 -18 -216 -16 -62 -20 -101 -17 -172 3 -50 8 -98 12 -107 6 -14
-9 -17 -125 -23 l-133 -8 -195 -103 c-108 -57 -209 -111 -224 -119 -21 -12
-28 -22 -25 -38 2 -19 17 -28 78 -49 326 -112 413 -139 433 -134 12 3 112 12
222 19 l200 13 47 -33 c27 -18 61 -35 78 -39 16 -4 32 -11 35 -16 4 -5 47 -9
97 -9 77 0 99 -4 146 -26 155 -73 384 -64 522 21 29 18 46 21 96 17 39 -3 81
2 115 11 60 18 165 90 198 135 20 29 23 30 136 37 77 5 120 3 128 -4 19 -15
327 6 347 24 8 7 59 18 112 23 54 5 104 15 112 21 32 27 46 78 46 168 0 108
-13 158 -51 195 -28 28 -30 29 -132 27 -71 -1 -110 3 -124 12 -18 10 -43 11
-136 1 -63 -7 -132 -12 -154 -12 -24 0 -46 -6 -53 -15 -22 -27 -31 -12 -35 60
-2 39 -12 104 -23 146 -17 63 -20 99 -16 204 l4 127 63 42 c73 50 122 110 138
169 7 23 12 82 11 131 -2 74 3 105 28 182 48 151 65 262 51 344 -25 156 -86
246 -184 275 -56 17 -56 17 -111 4z m-1622 -93 c99 -67 196 -181 306 -361 65
-107 71 -120 55 -130 -9 -5 -27 -18 -39 -27 -20 -16 -20 -17 -2 -24 10 -4 33
-2 50 5 17 7 76 27 131 44 95 29 109 30 275 31 186 0 197 -2 372 -62 59 -20
80 -24 89 -15 9 9 3 17 -25 33 -20 12 -36 25 -36 28 0 17 66 133 121 216 189
279 368 381 483 273 44 -41 71 -96 86 -175 17 -84 8 -174 -31 -302 -25 -82
-33 -133 -38 -230 -8 -137 -17 -163 -78 -231 -33 -37 -80 -69 -100 -69 -4 0
-16 27 -27 60 -23 76 -40 100 -57 82 -11 -10 -11 -18 0 -45 29 -69 41 -155 41
-295 0 -111 4 -158 20 -214 23 -83 27 -187 8 -192 -7 -3 -43 -7 -80 -10 l-67
-6 -16 34 c-19 40 -48 67 -136 125 -46 31 -84 69 -130 129 -121 160 -213 208
-404 206 -87 0 -123 -5 -170 -23 -92 -33 -157 -82 -211 -157 -73 -101 -93
-121 -168 -172 -88 -59 -126 -106 -133 -163 -3 -24 -11 -47 -17 -51 -6 -4 -36
-8 -68 -8 l-56 0 -12 71 c-13 74 -9 123 17 217 11 40 15 96 14 190 -2 134 8
221 35 301 8 24 12 51 9 59 -10 26 -32 -5 -56 -76 -12 -37 -23 -68 -24 -70 -7
-8 -63 29 -99 64 -62 60 -80 112 -78 222 1 76 -3 106 -22 161 -87 250 -81 444
18 549 67 70 152 73 250 8z m847 -1166 c129 -19 195 -61 292 -185 72 -93 82
-103 162 -155 97 -63 128 -123 111 -215 -11 -55 -77 -121 -139 -140 -101 -30
-179 -11 -301 73 -154 106 -176 133 -176 217 0 37 4 55 13 55 6 0 26 11 42 24
l30 24 -23 25 c-16 17 -22 34 -20 53 4 39 28 44 28 5 0 -37 27 -55 63 -42 59
23 75 98 32 149 -42 50 -89 66 -190 66 -105 0 -162 -23 -195 -77 -25 -40 -25
-64 -1 -103 33 -54 101 -53 101 1 0 29 10 38 27 24 20 -17 16 -47 -12 -75 -14
-14 -25 -27 -25 -29 0 -2 21 -16 46 -31 l46 -27 -5 -49 c-4 -27 -14 -62 -24
-79 -24 -41 -205 -174 -271 -199 -105 -40 -203 -22 -274 49 -37 38 -47 55 -53
95 -9 58 6 114 38 144 13 12 54 43 93 70 49 34 87 71 134 134 36 47 79 97 95
111 51 41 130 76 197 85 86 13 85 13 159 2z m-4 -91 c34 -13 18 -25 -45 -35
-47 -7 -131 12 -116 26 22 20 118 26 161 9z m1110 -414 c18 -88 26 -224 16
-270 l-9 -40 -54 -3 -55 -3 3 71 c3 63 -8 190 -25 271 -6 31 8 38 72 36 l39
-2 13 -60z m84 -2 c13 -65 20 -286 9 -296 -3 -3 -14 -7 -25 -9 -19 -3 -20 2
-17 62 3 63 -10 211 -24 278 -6 29 -4 32 19 32 23 0 26 -6 38 -67z m-242 30
c16 -41 30 -208 24 -285 -5 -62 -8 -68 -28 -68 -21 0 -22 3 -17 73 4 63 -6
169 -24 275 -5 27 -3 32 14 32 12 0 24 -10 31 -27z m454 18 c37 -14 52 -64 52
-173 0 -119 -10 -133 -100 -148 -111 -18 -101 -30 -108 133 -4 78 -9 152 -13
164 -6 20 -2 22 47 26 30 2 64 4 76 5 12 1 33 -2 46 -7z m-539 -59 c5 -18 6
-35 2 -39 -4 -4 -63 -9 -132 -11 l-125 -4 3 38 3 39 70 6 c39 3 92 5 120 5 47
-1 50 -3 59 -34z m-887 -47 c21 -19 41 -35 46 -35 4 0 7 -4 7 -9 0 -6 -47 -11
-105 -13 -79 -2 -105 0 -105 10 0 6 4 12 8 12 5 0 26 16 48 35 21 19 44 35 51
35 7 0 29 -16 50 -35z m-722 -42 c8 -20 14 -37 13 -38 -2 -2 -86 -8 -187 -16
l-184 -13 -28 32 c-16 18 -29 37 -29 42 0 6 19 11 43 11 23 1 89 5 147 9 215
14 208 15 225 -27z m1625 -38 c0 -53 0 -54 -32 -59 -50 -8 -361 -26 -365 -22
-2 2 11 13 30 25 19 11 46 39 61 61 l26 39 77 4 c43 1 106 4 141 5 l62 2 0
-55z m-2057 -5 l29 -40 -31 -36 c-17 -19 -31 -40 -31 -46 0 -7 16 -29 36 -49
35 -36 35 -37 20 -65 -33 -61 -24 -60 -149 -19 l-115 38 1 52 c1 33 -4 60 -13
71 -9 10 -11 19 -5 21 6 2 55 28 110 57 55 29 105 54 110 54 6 1 23 -16 38
-38z m1278 -8 c13 -10 51 -34 84 -53 l60 -34 -55 -3 c-49 -2 -211 -12 -680
-42 -74 -5 -229 -14 -345 -20 -116 -6 -222 -13 -238 -15 -20 -3 -36 3 -59 24
l-31 28 27 36 c20 26 36 37 55 37 14 0 107 5 207 11 l181 11 44 -31 c71 -50
178 -61 264 -28 17 6 57 27 90 46 56 33 67 36 175 41 196 11 196 11 221 -8z
m779 -117 c0 -31 -3 -35 -32 -39 -41 -6 -266 -22 -493 -36 -93 -6 -267 -18
-385 -26 -118 -8 -381 -26 -585 -40 -203 -13 -405 -27 -447 -30 -45 -4 -78 -3
-78 2 0 8 47 83 53 85 5 1 459 31 832 54 744 48 989 62 1063 64 l72 1 0 -35z
m-340 -140 c-18 -19 -58 -46 -89 -61 -60 -28 -161 -45 -161 -26 0 6 5 14 10
17 15 9 12 35 -3 35 -7 0 -29 -14 -48 -31 -105 -95 -278 -131 -449 -95 -64 14
-106 33 -182 83 -40 27 -63 23 -52 -9 6 -20 4 -21 -50 -15 -31 3 -77 16 -102
29 l-47 23 59 7 c98 11 993 73 1108 77 l40 1 -34 -35z"/>
<path d="M2308 2363 c-23 -27 -28 -38 -60 -127 -24 -65 -31 -104 -35 -193 -5
-102 -4 -115 17 -159 27 -56 76 -114 96 -114 22 0 17 12 -26 69 -64 87 -72
171 -34 339 8 35 28 92 44 126 17 35 30 66 30 69 0 13 -17 7 -32 -10z"/>
<path d="M910 2365 c0 -3 11 -28 25 -55 42 -82 68 -196 69 -295 1 -97 -8 -123
-65 -196 -34 -44 -35 -49 -10 -49 39 0 102 107 112 190 12 102 -28 281 -84
378 -16 27 -47 45 -47 27z"/>
<path d="M2582 1823 c-19 -52 -21 -62 -13 -68 11 -6 52 75 45 87 -10 15 -22 8
-32 -19z"/>
<path d="M645 1813 c3 -16 14 -39 23 -53 23 -35 28 -5 8 44 -18 43 -41 49 -31
9z"/>
<path d="M2112 1682 c-21 -14 -3 -42 27 -42 14 0 41 -9 59 -20 44 -27 64 -26
60 3 -5 39 -110 81 -146 59z"/>
<path d="M1041 1662 c-42 -21 -60 -47 -44 -63 8 -8 18 -6 37 6 14 9 45 23 68
30 25 7 44 19 46 29 5 22 -62 22 -107 -2z"/>
<path d="M1019 1480 c-109 -58 -133 -196 -49 -280 114 -114 290 -38 290 127 0
64 -27 112 -81 145 -53 32 -109 35 -160 8z m71 -33 c-13 -7 -35 -28 -48 -47
-20 -29 -23 -44 -19 -89 3 -46 9 -59 36 -83 20 -18 42 -28 64 -28 24 0 28 -3
17 -10 -27 -17 -86 -11 -120 13 -73 49 -88 134 -35 203 30 39 55 52 100 53
l30 1 -25 -13z m103 -57 c11 -44 -42 -67 -66 -28 -8 12 -7 21 2 32 19 23 58
20 64 -4z"/>
<path d="M2083 1486 c-65 -36 -93 -84 -93 -158 0 -72 31 -124 90 -154 64 -33
116 -31 173 7 109 72 102 241 -13 299 -44 23 -122 25 -157 6z m55 -55 c-39
-36 -42 -42 -42 -94 -1 -69 23 -105 85 -129 43 -16 43 -17 14 -19 -81 -6 -126
15 -155 71 -26 51 -25 99 3 141 24 36 78 69 114 69 20 0 17 -5 -19 -39z m110
-20 c21 -13 11 -55 -14 -59 -30 -4 -48 21 -34 47 11 22 27 26 48 12z"/>
<path d="M1517 1456 c-26 -7 -50 -16 -54 -19 -16 -17 12 -19 76 -7 66 12 150
10 225 -7 21 -4 27 -2 24 8 -11 34 -179 49 -271 25z"/>
<path d="M1992 978 c2 -12 10 -23 18 -23 22 0 19 39 -3 43 -15 3 -18 -1 -15
-20z"/>
<path d="M1230 975 c-13 -16 -6 -35 15 -35 15 0 28 27 19 41 -8 13 -20 11 -34
-6z"/>
<path d="M1940 881 c0 -19 23 -35 34 -24 14 15 5 43 -14 43 -13 0 -20 -7 -20
-19z"/>
<path d="M1280 870 c0 -13 7 -20 20 -20 13 0 20 7 20 20 0 13 -7 20 -20 20
-13 0 -20 -7 -20 -20z"/>
<path d="M1137 867 c-3 -8 -2 -19 2 -26 11 -16 43 -2 39 18 -4 20 -34 26 -41
8z"/>
<path d="M2081 867 c-14 -17 3 -41 23 -34 9 4 16 13 16 21 0 19 -26 28 -39 13z"/>
<path d="M2714 839 c-10 -18 11 -31 40 -23 36 9 34 34 -3 34 -17 0 -33 -5 -37
-11z"/>
<path d="M2735 720 c-10 -16 4 -30 31 -30 17 0 24 5 24 20 0 15 -7 20 -24 20
-14 0 -28 -4 -31 -10z"/>
<path d="M2735 590 c-4 -7 -3 -16 3 -22 14 -14 65 -1 59 15 -5 16 -53 21 -62
7z"/>
</g>
</svg>
